PathFileType	4	(X/Y/Z)	Walk9.trc
DataRate	CameraRate	NumFrames	NumMarkers	Units	OrigDataRate	OrigDataStartFrame	OrigNumFrames
200.000000	200.000000	8	61	mm	200.000000	260	503
Frame#	Times		LFHD		RFHD		CLAV		LASI		RASI		RACR1		RUA1		RFA1		RWRR		RCAR		LACR1		LUA1		LWRU		RTH3		RTB4		LTH1		LTH3		LTH4		LTB1		LTB2		LTB4		LLFC		RTB1		LCAR		LFA1		RTB3		STRN		RMFC		RMT5		RToe		RLFC		LTH2		RTH2		RMT1		LBHD		LTB3		RTB2		LWRR		LElbow		RMMAL		RTH4		RWRU		RLMAL		RCAL		LPSI		RElbow		RTH1		RBHD		T10		RPSI		RBack		LMFC		C7		RElbowM		LElbowM		LLMAL		LCAL		LMT5		LToe		LMT1		LMMAL
			X1	Y1	Z1	X2	Y2	Z2	X3	Y3	Z3	X4	Y4	Z4	X5	Y5	Z5	X6	Y6	Z6	X7	Y7	Z7	X8	Y8	Z8	X9	Y9	Z9	X10	Y10	Z10	X11	Y11	Z11	X12	Y12	Z12	X13	Y13	Z13	X14	Y14	Z14	X15	Y15	Z15	X16	Y16	Z16	X17	Y17	Z17	X18	Y18	Z18	X19	Y19	Z19	X20	Y20	Z20	X21	Y21	Z21	X22	Y22	Z22	X23	Y23	Z23	X24	Y24	Z24	X25	Y25	Z25	X26	Y26	Z26	X27	Y27	Z27	X28	Y28	Z28	X29	Y29	Z29	X30	Y30	Z30	X31	Y31	Z31	X32	Y32	Z32	X33	Y33	Z33	X34	Y34	Z34	X35	Y35	Z35	X36	Y36	Z36	X37	Y37	Z37	X38	Y38	Z38	X39	Y39	Z39	X40	Y40	Z40	X41	Y41	Z41	X42	Y42	Z42	X43	Y43	Z43	X44	Y44	Z44	X45	Y45	Z45	X46	Y46	Z46	X47	Y47	Z47	X48	Y48	Z48	X49	Y49	Z49	X50	Y50	Z50	X51	Y51	Z51	X52	Y52	Z52	X53	Y53	Z53	X54	Y54	Z54	X55	Y55	Z55	X56	Y56	Z56	X57	Y57	Z57	X58	Y58	Z58	X59	Y59	Z59	X60	Y60	Z60	X61	Y61	Z61

260	1.3	-299.88	1586.1	-85.171	-304.88	1589.9	14.598	-342.93	1309.6	-31.683	-364.61	912.2	-130.85	-376.64	910.74	118.4	-408.01	1347.9	135.81	-405.51	1177.9	189.05	-331.21	898.65	236.48	-252.64	808.76	190.35	-233.05	746.18	239.49	-418.12	1352.6	-185.83	-447.13	1179	-244.01	-425.5	778.34	-298.92	-387.22	570.04	159.47	-514.32	284.22	100.85	-396.05	744.51	-200.13	-372.44	578.14	-161.17	-385.6	660.84	-182.49	-321.49	341.56	-65.548	-347.66	253.53	-118.51	-337.03	257.07	-58.055	-350.9	439.63	-135.54	-438.26	327.68	106.38	-458.96	718.87	-337.23	-474.33	893.8	-301.27	-589.02	241.99	91.991	-323.01	1174.3	-25.074	-385.6	417.71	9.9758	-705.29	114.19	113.97	-650.34	53.524	71.361	-378.25	422.06	140.03	-329.23	674.08	-164.29	-346.06	665.98	148.82	-675.28	94.215	35.514	-440.59	1519.3	-112.94	-348.87	173.65	-49.291	-538.19	322.37	142.15	-494.53	776.86	-293.8	-485.93	1027.5	-266.8	-687.15	227.6	29.124	-398.96	652.96	171.08	-298.36	783.15	234.03	-711.89	230.87	108.35	-756.02	260.41	63.927	-543.47	962.95	-61.208	-407.66	1010.7	224	-408.86	738.29	186.73	-446.02	1530.3	30.154	-532.08	1206.8	-17.789	-545.34	954.38	38.464	-530.96	1294.8	48.031	-378.35	433.43	-5.3526	-451.43	1415.2	-31.914	-439.61	1002.6	150.96	-494.35	1006.7	-194.88	-405.78	63.496	-91.733	-463.97	36.889	-53.215	-299.79	23.977	-98.647	-214.76	27.79	-39.922	-271.9	31.585	-13.96	-397.15	84.32	-11.812
261	1.305	-292.31	1587.2	-85.211	-297.27	1591.1	14.546	-336.24	1311.1	-31.592	-357.52	913.1	-130.79	-369.75	912.72	118.29	-401.91	1349.4	135.82	-399.35	1179.3	189.01	-326.74	899.38	236.88	-249.24	808.25	191.1	-230.18	745.73	240.54	-411.14	1354.2	-185.81	-438.63	1180.6	-244.42	-410.62	780.48	-299.91	-376.35	572.49	159.43	-498.61	285.75	100.53	-390.2	745.29	-199.98	-368.95	578.53	-161.34	-380.93	661.41	-182.47	-320.62	341.44	-65.827	-347.2	253.49	-118.71	-336.39	257	-58.282	-349.61	439.59	-135.71	-423.02	329.95	106.04	-442.76	720.56	-338.65	-461.34	895.1	-302.49	-572.87	242.81	91.664	-316.13	1175.9	-24.725	-371.25	420.56	9.7078	-686.1	113.8	113.6	-629.62	54.576	70.96	-364.14	424.91	139.91	-324.48	673.98	-163.94	-336.61	669.06	149.23	-655.63	94.49	35.203	-433.39	1521.1	-112.88	-348.51	173.64	-49.488	-522.88	323.78	141.7	-479.63	777.85	-295.36	-475.48	1028.6	-267.89	-670.69	227.26	28.565	-389.52	655.24	171.2	-295.18	783.44	235.07	-695.54	230.06	107.81	-740.74	258.41	63.262	-536.31	964.37	-61.874	-401.85	1012.1	223.83	-400.9	740.29	186.78	-438.7	1532.2	30.214	-525.21	1208	-18.269	-538.4	955.87	37.829	-524.34	1296	47.61	-377.45	433.49	-5.5821	-444.77	1416.6	-31.918	-433.69	1004.2	150.76	-484.15	1007.6	-196.08	-405.8	63.613	-91.772	-463.95	37.065	-53.197	-299.79	23.984	-98.687	-214.73	27.811	-40.039	-271.89	31.652	-14.014	-397.03	84.484	-11.881
262	1.31	-284.76	1588.2	-85.211	-289.68	1592.2	14.532	-329.57	1312.6	-31.517	-350.43	913.95	-130.71	-362.84	914.68	118.16	-395.85	1350.8	135.82	-393.26	1180.7	188.98	-322.32	900.14	237.31	-245.86	807.83	191.91	-227.33	745.35	241.63	-404.19	1355.9	-185.79	-430.17	1182.2	-244.84	-395.69	782.76	-300.83	-365.51	575.01	159.42	-482.86	287.19	100.29	-384.38	746.03	-199.8	-365.5	578.92	-161.48	-376.3	661.94	-182.42	-319.82	341.36	-66.05	-346.73	253.49	-118.88	-335.8	256.97	-58.461	-348.39	439.58	-135.86	-407.83	332.25	105.8	-426.5	722.39	-339.97	-448.34	896.47	-303.65	-556.61	243.44	91.403	-309.26	1177.6	-24.384	-356.98	423.46	9.5011	-666.66	113.09	113.25	-608.57	55.418	70.616	-350.18	427.87	139.84	-319.78	673.85	-163.55	-327.22	672.18	149.69	-635.67	94.483	34.937	-426.21	1522.9	-112.79	-348.16	173.65	-49.644	-507.64	325.1	141.29	-464.66	778.95	-296.82	-465.07	1029.8	-268.96	-654.05	226.53	28.018	-380.1	657.52	171.35	-292.02	783.82	236.15	-679.04	228.86	107.25	-725.27	255.96	62.57	-529.15	965.75	-62.51	-396.14	1013.5	223.7	-392.99	742.3	186.86	-431.4	1534.1	30.299	-518.35	1209.2	-18.768	-531.44	957.34	37.229	-517.72	1297.2	47.169	-376.64	433.58	-5.8004	-438.15	1418	-31.923	-427.89	1005.8	150.62	-473.96	1008.5	-197.24	-405.8	63.756	-91.802	-463.92	37.27	-53.169	-299.78	23.987	-98.72	-214.7	27.826	-40.148	-271.86	31.712	-14.067	-396.91	84.667	-11.945
263	1.315	-277.23	1589.2	-85.175	-282.12	1593.2	14.555	-322.92	1314	-31.459	-343.35	914.74	-130.62	-355.9	916.6	118.03	-389.82	1352.1	135.8	-387.22	1182	188.95	-317.96	900.92	237.78	-242.5	807.49	192.77	-224.48	745.03	242.75	-397.28	1357.6	-185.77	-421.74	1183.8	-245.25	-380.73	785.17	-301.66	-354.7	577.55	159.45	-467.08	288.54	100.14	-378.58	746.73	-199.59	-362.09	579.3	-161.6	-371.7	662.43	-182.32	-319.06	341.32	-66.22	-346.26	253.52	-119.01	-335.23	256.96	-58.595	-347.21	439.6	-135.98	-392.68	334.56	105.69	-410.19	724.34	-341.17	-435.35	897.91	-304.75	-540.24	243.86	91.209	-302.39	1179.3	-24.059	-342.81	426.38	9.3545	-646.99	112.09	112.93	-587.23	56.057	70.347	-336.35	430.91	139.81	-315.12	673.71	-163.13	-317.88	675.33	150.19	-615.44	94.207	34.726	-419.05	1524.7	-112.69	-347.82	173.69	-49.762	-492.47	326.32	140.9	-449.62	780.15	-298.16	-454.7	1031	-270	-637.22	225.42	27.488	-370.71	659.79	171.53	-288.87	784.26	237.26	-662.39	227.29	106.69	-709.61	253.06	61.856	-521.99	967.09	-63.111	-390.52	1014.9	223.63	-385.09	744.29	186.99	-424.11	1535.9	30.403	-511.5	1210.4	-19.282	-524.46	958.79	36.67	-511.13	1298.2	46.707	-375.91	433.71	-6.0079	-431.55	1419.4	-31.932	-422.2	1007.4	150.53	-463.8	1009.5	-198.36	-405.79	63.926	-91.822	-463.88	37.504	-53.13	-299.76	23.984	-98.746	-214.66	27.836	-40.25	-271.83	31.767	-14.12	-396.77	84.87	-12.002
264	1.32	-269.73	1590.2	-85.105	-274.58	1594.2	14.61	-316.29	1315.4	-31.419	-336.29	915.47	-130.52	-348.94	918.46	117.89	-383.8	1353.4	135.75	-381.24	1183.3	188.93	-313.65	901.71	238.29	-239.12	807.22	193.69	-221.64	744.77	243.91	-390.39	1359.2	-185.75	-413.35	1185.4	-245.67	-365.74	787.71	-302.41	-343.92	580.11	159.51	-451.29	289.77	100.09	-372.81	747.39	-199.35	-358.71	579.67	-161.71	-367.13	662.89	-182.2	-318.35	341.32	-66.34	-345.78	253.57	-119.11	-334.69	256.99	-58.687	-346.08	439.65	-136.1	-377.61	336.87	105.7	-393.83	726.41	-342.25	-422.36	899.41	-305.78	-523.77	244.09	91.084	-295.54	1180.9	-23.757	-328.73	429.33	9.2664	-627.11	110.8	112.66	-565.66	56.498	70.167	-322.69	434.01	139.83	-310.51	673.55	-162.68	-308.6	678.5	150.74	-594.97	93.676	34.579	-411.89	1526.4	-112.57	-347.49	173.76	-49.844	-477.38	327.42	140.55	-434.52	781.44	-299.39	-444.39	1032.3	-271.01	-620.22	223.96	26.981	-361.34	662.05	171.74	-285.72	784.74	238.4	-645.6	225.37	106.14	-693.75	249.75	61.129	-514.83	968.37	-63.674	-385	1016.3	223.6	-377.22	746.25	187.15	-416.83	1537.7	30.524	-504.66	1211.5	-19.812	-517.46	960.2	36.154	-504.54	1299.3	46.224	-375.24	433.89	-6.2036	-424.96	1420.7	-31.949	-416.62	1009	150.49	-453.66	1010.6	-199.45	-405.76	64.122	-91.83	-463.84	37.766	-53.08	-299.74	23.978	-98.765	-214.62	27.842	-40.345	-271.78	31.818	-14.172	-396.62	85.092	-12.053
265	1.325	-262.25	1591.1	-85.004	-267.07	1595.1	14.694	-309.66	1316.8	-31.397	-329.24	916.15	-130.43	-341.96	920.25	117.74	-377.8	1354.6	135.69	-375.31	1184.5	188.92	-309.39	902.49	238.84	-235.73	807.01	194.67	-218.78	744.54	245.11	-383.51	1360.8	-185.74	-404.98	1187	-246.09	-350.72	790.37	-303.09	-333.18	582.68	159.61	-435.5	290.9	100.12	-367.07	747.99	-199.09	-355.36	580.02	-161.8	-362.58	663.31	-182.05	-317.66	341.34	-66.417	-345.29	253.65	-119.18	-334.16	257.05	-58.741	-344.98	439.71	-136.19	-362.61	339.17	105.83	-377.42	728.61	-343.22	-409.39	900.96	-306.75	-507.23	244.12	91.027	-288.71	1182.4	-23.484	-314.75	432.27	9.2347	-607.04	109.26	112.43	-543.88	56.753	70.087	-309.19	437.16	139.87	-305.94	673.36	-162.22	-299.38	681.65	151.32	-574.28	92.907	34.501	-404.75	1528	-112.44	-347.16	173.85	-49.894	-462.38	328.4	140.23	-419.37	782.83	-300.52	-434.13	1033.6	-272	-603.05	222.15	26.503	-351.99	664.27	171.99	-282.57	785.25	239.55	-628.67	223.1	105.61	-677.69	246.04	60.398	-507.68	969.59	-64.195	-379.57	1017.6	223.61	-369.35	748.16	187.35	-409.57	1539.3	30.659	-497.82	1212.5	-20.353	-510.43	961.56	35.686	-497.96	1300.2	45.718	-374.61	434.11	-6.3856	-418.38	1421.9	-31.976	-411.13	1010.5	150.5	-443.57	1011.6	-200.51	-405.71	64.344	-91.826	-463.78	38.055	-53.017	-299.72	23.967	-98.777	-214.56	27.843	-40.434	-271.72	31.866	-14.223	-396.46	85.334	-12.093
266	1.33	-254.79	1591.9	-84.877	-259.59	1595.9	14.804	-303.05	1318.1	-31.392	-322.21	916.77	-130.34	-334.97	921.95	117.58	-371.8	1355.7	135.6	-369.42	1185.6	188.9	-305.17	903.25	239.43	-232.31	806.85	195.71	-215.92	744.34	246.34	-376.64	1362.3	-185.74	-396.64	1188.6	-246.52	-335.7	793.13	-303.69	-322.47	585.22	159.75	-419.71	291.92	100.23	-361.37	748.55	-198.82	-352.03	580.37	-161.87	-358.07	663.69	-181.87	-316.99	341.4	-66.458	-344.78	253.75	-119.22	-333.63	257.13	-58.766	-343.9	439.8	-136.27	-347.69	341.43	106.07	-360.98	730.91	-344.08	-396.44	902.55	-307.67	-490.61	243.96	91.037	-281.88	1183.9	-23.247	-300.88	435.18	9.2569	-586.78	107.48	112.26	-521.92	56.833	70.112	-295.87	440.31	139.95	-301.41	673.14	-161.74	-290.2	684.78	151.94	-553.38	91.92	34.498	-397.61	1529.5	-112.29	-346.83	173.96	-49.917	-447.47	329.22	139.94	-404.18	784.3	-301.53	-423.93	1034.9	-272.98	-585.72	220.01	26.059	-342.67	666.44	172.26	-279.41	785.76	240.72	-611.6	220.5	105.1	-661.43	241.95	59.67	-500.54	970.74	-64.671	-374.23	1018.8	223.66	-361.49	750.02	187.59	-402.32	1540.8	30.804	-490.99	1213.4	-20.906	-503.39	962.86	35.268	-491.39	1301.1	45.189	-374.01	434.38	-6.5521	-411.81	1423	-32.016	-405.74	1011.9	150.54	-433.52	1012.7	-201.54	-405.65	64.591	-91.807	-463.71	38.371	-52.94	-299.69	23.954	-98.78	-214.5	27.84	-40.519	-271.65	31.911	-14.274	-396.27	85.594	-12.123
267	1.335	-247.35	1592.7	-84.727	-252.14	1596.6	14.936	-296.43	1319.3	-31.402	-315.2	917.33	-130.27	-327.96	923.55	117.41	-365.81	1356.7	135.49	-363.58	1186.7	188.89	-300.99	903.97	240.05	-228.85	806.73	196.82	-213.05	744.16	247.62	-369.77	1363.8	-185.74	-388.32	1190.1	-246.96	-320.67	795.99	-304.21	-311.81	587.73	159.92	-403.92	292.81	100.42	-355.69	749.05	-198.53	-348.72	580.7	-161.93	-353.58	664.04	-181.68	-316.33	341.48	-66.474	-344.27	253.87	-119.24	-333.1	257.24	-58.768	-342.83	439.91	-136.35	-332.87	343.65	106.42	-344.51	733.31	-344.81	-383.53	904.16	-308.53	-473.91	243.6	91.11	-275.08	1185.3	-23.051	-287.14	438.07	9.3303	-566.36	105.48	112.15	-499.81	56.751	70.247	-282.72	443.46	140.06	-296.93	672.89	-161.25	-281.08	687.85	152.58	-532.28	90.734	34.572	-390.48	1531	-112.15	-346.5	174.09	-49.919	-432.65	329.89	139.69	-388.94	785.84	-302.44	-413.81	1036.1	-273.95	-568.22	217.56	25.653	-333.38	668.56	172.56	-276.24	786.27	241.89	-594.38	217.59	104.61	-644.95	237.5	58.956	-493.41	971.82	-65.102	-368.98	1020	223.74	-353.64	751.82	187.86	-395.08	1542.2	30.956	-484.15	1214.3	-21.466	-496.33	964.09	34.9	-484.83	1301.8	44.638	-373.42	434.68	-6.7018	-405.24	1424.1	-32.07	-400.42	1013.3	150.61	-423.53	1013.8	-202.56	-405.58	64.861	-91.772	-463.64	38.713	-52.845	-299.66	23.938	-98.775	-214.44	27.833	-40.6	-271.57	31.953	-14.323	-396.06	85.872	-12.14
